<svg width="128" height="128" viewBox="0 0 128 128" fill="none" xmlns="http://www.w3.org/2000/svg" role="img" aria-labelledby="logo-title">
	<title id="logo-title">Public Hospital Malaysia</title>
	<circle cx="64" cy="64" r="51" stroke="#003A8C" stroke-width="8"/>
	<path d="M36 73C28 56 36 39 50 28C33 35 22 50 21 67C20 91 40 109 64 110C83 111 99 101 107 86C95 97 78 102 62 98C49 95 41 85 36 73Z" fill="#D91E28"/>
	<path d="M75 29C81 29 86 34 86 40V51H98C104 51 109 56 109 62V72C109 78 104 83 98 83H86V95C86 101 81 106 75 106H53C47 106 42 101 42 95V83H30C24 83 19 78 19 72V62C19 56 24 51 30 51H42V40C42 34 47 29 53 29H75Z" fill="#003A8C"/>
	<path d="M73 38C61 41 52 53 52 67C52 82 63 94 78 96C72 91 68 83 68 74C68 59 78 46 92 42C86 38 80 37 73 38Z" fill="#FFD23F"/>
	<path d="M82 48L86 59L97 54L92 65L104 68L92 72L97 83L86 78L82 90L78 78L67 83L72 72L60 68L72 65L67 54L78 59L82 48Z" fill="#FFD23F"/>
	<path d="M50 91C58 96 62 104 64 114C66 104 70 96 78 91C72 91 66 95 64 101C62 95 56 91 50 91Z" fill="white"/>
	<path d="M41 82C54 88 62 99 64 116C66 99 74 88 87 82C80 82 69 88 64 101C59 88 48 82 41 82Z" fill="#003A8C"/>
</svg>
